<svg xmlns="http://www.w3.org/2000/svg" width="800" height="800"><path d="M791.429 400A391.429 391.429 0 1 1 8.57 400a391.429 391.429 0 1 1 782.858 0z" fill="#fff" stroke="gray" stroke-width="5"/><path d="M74.228 327.678h649.78l-39.892 74.601 41.427 74.601H72.693l42.961-76.155z" stroke="#000" stroke-width="1.867"/><path fill="#fff" stroke="#fff" stroke-width="2.314" d="M74.29 332.34h648.649v2.332H74.29z"/><path fill="#fff" stroke="#fff" stroke-width="2.306" d="M76.204 464.058h644.298v2.332H76.204z"/><text transform="matrix(.8239 0 0 1.21374 0 -252.362)" y="545.123" x="153.843" style="line-height:0%" font-size="19.749" font-weight="400" letter-spacing="0" word-spacing="0" fill="#fff" font-family="Sans"><tspan style="line-height:0%;-inkscape-font-specification:Droid Naskh Shift Alt" y="545.123" x="153.843" letter-spacing="-1.086" font-family="Droid Naskh Shift Alt">PERL</tspan></text><text transform="matrix(.80246 0 0 1.24617 0 -252.362)" y="530.942" x="792.67" style="line-height:0%" font-size="19.235" font-weight="400" letter-spacing="0" word-spacing="0" fill="#fff" font-family="Sans"><tspan style="line-height:0%;-inkscape-font-specification:Droid Naskh Shift Alt" y="530.942" x="792.67" letter-spacing="-1.058" font-family="Droid Naskh Shift Alt">AGAIN</tspan></text><path d="M188.151 379.988l-16.063-24.115 23.995-17.61-11.144-26.817 25.702-10.006-3.916-28.817 29.015-5.904v-29.017l29.216-.1 6.325-29.518 28.313 6.504 10.843-27.717 26.304 12.408 16.967-25.316 24.197 16.61 20.983-20.712 21.585 19.512 23.092-15.21 15.963 25.116 27.51-12.108 12.55 27.817 27.408-6.904 5.622 29.718 29.216-.3v29.117l29.216 4.203-6.024 30.919 27.208 9.605-11.545 27.417 23.392 17.01-14.256 23.514 19.98 21.413-21.084 20.013 15.561 24.514-23.493 16.11 11.847 27.117-27.409 10.606 6.024 29.218-29.517 5.603.2 28.817-28.914.2-6.124 29.018-28.212-6.104-10.542 27.117-27.308-11.207-17.57 24.715-23.694-16.41-20.983 20.112-20.984-19.712-23.192 15.61-17.77-24.415-26.204 11.507-10.442-26.316-31.023 5.303-4.217-28.917-29.215-.5.3-29.018-29.115-5.704 5.622-28.217-27.408-11.507 11.646-26.416-24.598-17.01 16.767-24.114L167.97 400.2z" fill="#fff" stroke="#8d8d8d" stroke-width="1.939"/><path d="M195.244 380.326l-15.542-23.41 23.216-17.096-10.783-26.032 24.867-9.714-3.788-27.975 28.073-5.731v-28.17l28.266-.097 6.12-28.655 27.393 6.313 10.49-26.906 25.45 12.045 16.416-24.576 23.41 16.125 20.302-20.108 20.884 18.942 22.342-14.765 15.444 24.382 26.616-11.754 12.142 27.004 26.518-6.702 5.44 28.85 28.267-.292v28.267l28.267 4.08-5.829 30.015 26.324 9.325-11.17 26.615 22.633 16.513-13.794 22.828 19.33 20.787-20.398 19.427 15.056 23.799-22.73 15.639 11.462 26.324-26.518 10.296 5.828 28.364-28.558 5.44.194 27.975-27.975.194-5.926 28.17-27.295-5.925-10.2 26.324-26.42-10.88-17 23.993-22.924-15.93-20.302 19.524-20.301-19.136-22.439 15.154-17.193-23.702-25.353 11.171-10.102-25.547-30.015 5.148-4.08-28.072-28.267-.486.292-28.17-28.17-5.536 5.44-27.393-26.519-11.17 11.268-25.645-23.798-16.513 16.222-23.41-20.108-19.913z" stroke="#000" stroke-width="1.879"/><path d="M579.645 399.948c0 99.998-81.065 181.063-181.063 181.063-99.998 0-181.063-81.065-181.063-181.063 0-99.998 81.065-181.063 181.063-181.063 99.998 0 181.063 81.065 181.063 181.063z" fill="#fff"/><path d="M564.752 401.502c0 93.99-74.976 170.184-167.464 170.184-92.487 0-167.463-76.194-167.463-170.184S304.8 231.32 397.288 231.32s167.464 76.194 167.464 170.183z"/><path d="M545.713 399.948c0 81.544-66.278 147.648-148.036 147.648S249.64 481.492 249.64 399.948 315.92 252.3 397.677 252.3c81.758 0 148.036 66.104 148.036 147.648z" fill="#fff"/><path d="M535.61 399.171c0 75.535-61.928 136.769-138.322 136.769-76.393 0-138.322-61.234-138.322-136.769s61.929-136.768 138.322-136.768c76.394 0 138.323 61.233 138.323 136.768z"/><path d="M525.897 400.337c0 70.6-57.232 127.832-127.832 127.832s-127.832-57.233-127.832-127.832c0-70.6 57.233-127.832 127.832-127.832 70.6 0 127.832 57.232 127.832 127.832z" fill="#fff"/><path d="M258.536 170.3c0 42.95-34.818 77.768-77.768 77.768s-77.767-34.817-77.767-77.767c0-42.95 34.817-77.768 77.767-77.768 42.95 0 77.768 34.818 77.768 77.768z" transform="matrix(1.57862 0 0 1.57865 111.883 132.307)" fill="#fff" stroke="#000"/><path d="M402.825 323.016h18.845c3.26.084 6.54 1.396 9.033 2.623 4.849 2.964 8.466 7.079 9.423 12.044.588 2.632.485 5.292.485 7.966-.297 4.73-.998 7.896-3.691 11.656-1.123 1.56-3.133 3.512-4.807 4.305 2.767 11.351 6.778 23.395 9.758 36.978l-13.11-.194-8.548-32.638-4.275.34v32.055h-13.162zm-52.849-17.622c0 1.766-1.479 3.198-3.303 3.198-1.824 0-3.303-1.432-3.303-3.198 0-1.767 1.48-3.199 3.303-3.199 1.824 0 3.303 1.432 3.303 3.199zm101.852-.084c0 1.767-1.479 3.2-3.303 3.2-1.824 0-3.302-1.433-3.302-3.2 0-1.766 1.478-3.198 3.302-3.198s3.303 1.432 3.303 3.199z"/><text style="line-height:0%" x="190.033" y="62.549" transform="matrix(1.52974 0 0 2.307 68.966 168.611)" font-size="10.39" font-weight="400" letter-spacing="0" word-spacing="0" fill="#fff" font-family="Sans"><tspan x="190.033" y="62.549" style="line-height:0%;-inkscape-font-specification:Droid Naskh Shift Alt" letter-spacing="-.571" fill="#000" font-family="Droid Naskh Shift Alt">SINCE 2009</tspan></text><text style="line-height:0%" x="201.97" y="148.478" transform="matrix(1.52974 0 0 2.307 68.966 168.611)" font-size="10.39" font-weight="400" letter-spacing="0" word-spacing="0" fill="#fff" font-family="Sans"><tspan x="201.97" y="148.478" style="line-height:0%;-inkscape-font-specification:Droid Naskh Shift Alt" letter-spacing="-.571" fill="#000" font-family="Droid Naskh Shift Alt">is FUN</tspan></text><path d="M369.092 503.343c0 1.767-1.478 3.199-3.302 3.199s-3.303-1.432-3.303-3.199c0-1.766 1.479-3.198 3.303-3.198 1.824 0 3.302 1.432 3.302 3.198zm65.718-.083c0 1.766-1.48 3.199-3.303 3.199-1.824 0-3.303-1.433-3.303-3.2 0-1.766 1.479-3.198 3.303-3.198 1.824 0 3.302 1.432 3.302 3.199zM313.876 323.176l.777 75.767 13.017-.194v-30.501c5.428-.514 11.36-1.673 15.542-4.08 7.674-4.936 9.39-15.638 8.062-24.187-2.492-10.115-10.16-16.33-19.913-16.61-2.525-.04-17.485-.195-17.485-.195zm43.709-.351l32.076.207v11.058h-18.82v20.674h13.257v11.265H370.84v20.743h18.683v11.333h-31.87z"/><path d="M416.213 334.144l-.045 22.514c5.289.121 8.394-.859 10.514-5.304 1.036-2.47 1.172-5.039 1.098-7.599-.263-2.718-1.44-5.429-3.284-7.311-2.51-2.047-4.928-2.308-8.283-2.3z" fill="#fff"/><path d="M453.53 323.113h13.114l-.55 63.879 19.24-.138-.137 11.249h-31.57z"/><path d="M326.826 334.484l-.045 22.514c5.289.122 8.394-.859 10.513-5.303 1.037-2.47 1.172-5.04 1.098-7.6-.262-2.717-1.439-5.428-3.283-7.31-2.51-2.048-4.928-2.309-8.283-2.301z" fill="#fff"/><path d="M314.625 407.428V469.4c6.234.29 11.753 1.02 17.29-1.749 3.408-1.59 4.66-5.046 5.828-7.965 1.695-6.706 1.851-28.65 0-42.74-1.152-2.654-2.342-4.91-4.468-6.8-6.037-3.232-11.698-2.72-18.65-2.72z"/><path d="M323.95 416.753l-.194 43.128h1.651l1.846-.485 1.748-1.554.777-2.623c.025-2.714-.162-10.66-.213-18.424-.026-3.881.02-7.687.032-10.8.013-3.112.027-6.419-.159-6.644-.574-.935-1.04-1.228-1.854-1.712-.815-.485-1.902-.827-3.634-.886z" fill="#fff"/><path d="M340.598 469.505l9.65-61.925 10.792.332 9.582 61.553-7.423-.116-2.49-13.284-9.465.166-1.259 13.264z"/><path d="M356.723 427.007l-4.483 21.088 8.754.01z" fill="#fff"/><path d="M374.707 469.42l-.117-62.11 7.397.235 9.862 35.928-.352-36.046 9.393.118.117 49.313-7.162 13.15-11.858-36.163.117 35.576zm80.78-61.875l-.118 9.158-11.271.235v16.79h7.397l.234 9.393h-7.749l.235 16.907 11.154.235v9.158H443.51l-8.453-9.393v-44.734l9.628-7.632zm3.729-.097h11.26c1.95.07 3.91 1.153 5.399 2.166 2.897 2.449 5.059 5.847 5.63 9.95.352 2.172.29 4.37.29 6.578-.178 3.907-.596 6.523-2.205 9.628-.672 1.289-1.873 2.901-2.873 3.556 1.653 9.376 4.05 19.325 5.831 30.544l-7.834-.16-5.108-26.96-2.554.282v26.477h-7.865z"/><path d="M466.142 416.36l-.032 15.695c3.687.084 5.852-.599 7.329-3.697.723-1.723.817-3.513.765-5.298-.183-1.894-1.003-3.784-2.289-5.096-1.75-1.427-3.435-1.61-5.773-1.604z" fill="#fff"/><path d="M444.063 399.443l.664-3.155 1.827-.83 2.159.166 1.328 2.99.166 1.826-4.815 2.656-4.151 3.985-6.736 4.1s-4.057 4.867-4.722 5.863l-3.985 5.978s-1.66 3.819-1.992 5.147c-.332 1.329-.802 17.577-.802 17.577 4.392 3.36 3.953 8.033 4.97 11.38l1.643 5.415c3.683.892 6.249 2.864 9.133 5.147l.166 1.993c.74 2.2.235 3.824-.332 5.977l.664 5.48.664 4.151-2.324 2.159s-2.99.166-3.155-.499c-.166-.664 0-6.641 0-6.641l-.166-5.978-10.793-4.981-6.31-9.133-7.14 6.808 11.457.83 2.159-.498 2.158 2.657-.283 14.17c-1.416-.052-2.599.026-3.702-2.215l-.996-4.317-1.328-1.993-18.93-.996s-1.494-.498-1.826-1.826c-.332-1.329-.664-1.993-.664-2.823 0-.83 1.162-3.321 1.162-3.321l3.819-6.808 2.969-4.16c3.578-4.915 3.426-5.358 2.676-10.95l-1.611-5.018s-.713-4.945-.713-6.44c0-1.494 2.158-11.456 2.158-11.456l.997-3.321-2.159-3.985-.927-4.05c1.436-3.18-2.913-4.645.429-6.245 3.632-.569 1.298 1.997 4.151 6.808l.996 1.826 2.98.587c-.937-1.9-1.117-3.65-.489-5.236.665-2.504 2.832-4.275 5.314-4.816 1.328 0 4.15 0 4.317.665 2.642 2.04 1.39 4.518 1.328 4.483v1.66s.85 1.085 1.68.92c.83-.167 7.785-6.565 7.785-6.565l5.977-2.159z"/></svg>